{
  "accessors": [
    {
      "bufferView": 3,
      "componentType": 5126,
      "count": 65532,
      "max": [
        78.65676879882813,
        95.0042724609375,
        21.57792091369629
      ],
      "min": [
        -73.89167785644531,
        1.6956467628479004,
        -21.57792091369629
      ],
      "type": "VEC3"
    },
    {
      "bufferView": 3,
      "byteOffset": 786384,
      "componentType": 5126,
      "count": 65532,
      "max": [
        1.0,
        1.0,
        1.0
      ],
      "min": [
        -1.0,
        -1.0,
        -1.0
      ],
      "type": "VEC3"
    },
    {
      "bufferView": 4,
      "componentType": 5126,
      "count": 65532,
      "max": [
        1.0,
        1.0,
        1.0,
        1.0
      ],
      "min": [
        0.15294118225574493,
        0.15294118225574493,
        0.15294118225574493,
        0.9960784316062927
      ],
      "type": "VEC4"
    },
    {
      "bufferView": 2,
      "componentType": 5126,
      "count": 65532,
      "max": [
        1.0000001192092896,
        1.0115246772766113
      ],
      "min": [
        0.0,
        -0.061886854469776154
      ],
      "type": "VEC2"
    },
    {
      "bufferView": 1,
      "componentType": 5125,
      "count": 207027,
      "type": "SCALAR"
    },
    {
      "bufferView": 3,
      "byteOffset": 1572768,
      "componentType": 5126,
      "count": 35270,
      "max": [
        80.53081512451172,
        65.52520751953125,
        7.304452419281006
      ],
      "min": [
        -80.71566009521484,
        -0.17840483784675598,
        -6.9406352043151855
      ],
      "type": "VEC3"
    },
    {
      "bufferView": 3,
      "byteOffset": 1996008,
      "componentType": 5126,
      "count": 35270,
      "max": [
        1.0,
        1.0,
        1.0
      ],
      "min": [
        -1.0,
        -1.0,
        -1.0
      ],
      "type": "VEC3"
    },
    {
      "bufferView": 4,
      "byteOffset": 1048512,
      "componentType": 5126,
      "count": 35270,
      "max": [
        1.0,
        1.0,
        1.0,
        1.0
      ],
      "min": [
        0.15294118225574493,
        0.15294118225574493,
        0.15294118225574493,
        1.0
      ],
      "type": "VEC4"
    },
    {
      "bufferView": 2,
      "byteOffset": 524256,
      "componentType": 5126,
      "count": 35270,
      "max": [
        1.0,
        1.0
      ],
      "min": [
        0.0,
        0.0
      ],
      "type": "VEC2"
    },
    {
      "bufferView": 1,
      "byteOffset": 828108,
      "componentType": 5125,
      "count": 78447,
      "type": "SCALAR"
    },
    {
      "bufferView": 5,
      "componentType": 5126,
      "count": 8,
      "max": [
        1.0,
        0.009997214190661907,
        0.0028178656939417124,
        0.0,
        0.002817863831296563,
        1.0,
        0.009997516870498657,
        0.0,
        0.009997215121984482,
        5.585365943261422e-05,
        1.0,
        0.0,
        0.2557227313518524,
        0.6960740685462952,
        0.06512975692749023,
        1.0
      ],
      "min": [
        5.568152573687257e-06,
        -0.00016248234896920621,
        -0.000150690131704323,
        0.0,
        -0.0001506900880485773,
        -0.009555278345942497,
        -5.359502029023133e-05,
        0.0,
        -0.00016249892360065132,
        -0.0003231799346394837,
        -0.009555276483297348,
        0.0,
        -0.49428436160087585,
        -0.47212591767311096,
        -0.3331977128982544,
        1.0
      ],
      "type": "MAT4"
    },
    {
      "bufferView": 0,
      "componentType": 5123,
      "count": 65532,
      "type": "VEC4"
    },
    {
      "bufferView": 4,
      "byteOffset": 1612832,
      "componentType": 5126,
      "count": 65532,
      "max": [
        1.0,
        0.5,
        0.0,
        0.0
      ],
      "min": [
        0.5,
        0.0,
        0.0,
        0.0
      ],
      "type": "VEC4"
    },
    {
      "bufferView": 0,
      "byteOffset": 524256,
      "componentType": 5123,
      "count": 35270,
      "type": "VEC4"
    },
    {
      "bufferView": 4,
      "byteOffset": 2661344,
      "componentType": 5126,
      "count": 35270,
      "max": [
        1.0,
        0.0,
        0.0,
        0.0
      ],
      "min": [
        1.0,
        0.0,
        0.0,
        0.0
      ],
      "type": "VEC4"
    }
  ],
  "asset": {
    "extras": {
      "author": "hipoojan (https://sketchfab.com/hipoojan)",
      "license": "SKETCHFAB Standard (https://sketchfab.com/licenses)",
      "source": "https://sketchfab.com/3d-models/canyon-aeroad-road-bike-bf3133aacf9043b287525aa9d47cbacc",
      "title": "Canyon Aeroad | Road Bike"
    },
    "generator": "Sketchfab-16.59.0",
    "version": "2.0"
  },
  "bufferViews": [
    {
      "buffer": 0,
      "byteLength": 806416,
      "byteStride": 8,
      "name": "shortBufferViews",
      "target": 34962
    },
    {
      "buffer": 0,
      "byteLength": 1141896,
      "byteOffset": 806416,
      "name": "floatBufferViews",
      "target": 34963
    },
    {
      "buffer": 0,
      "byteLength": 806416,
      "byteOffset": 1948312,
      "byteStride": 8,
      "name": "floatBufferViews",
      "target": 34962
    },
    {
      "buffer": 0,
      "byteLength": 2419248,
      "byteOffset": 2754728,
      "byteStride": 12,
      "name": "floatBufferViews",
      "target": 34962
    },
    {
      "buffer": 0,
      "byteLength": 3225664,
      "byteOffset": 5173976,
      "byteStride": 16,
      "name": "floatBufferViews",
      "target": 34962
    },
    {
      "buffer": 0,
      "byteLength": 512,
      "byteOffset": 8399640,
      "name": "floatBufferViews"
    }
  ],
  "buffers": [
    {
      "byteLength": 8400152,
      "uri": "scene.bin"
    }
  ],
  "materials": [
    {
      "doubleSided": true,
      "name": "Canyon",
      "pbrMetallicRoughness": {
        "baseColorFactor": [
          0.8,
          0.8,
          0.8,
          1.0
        ],
        "metallicFactor": 0.0,
        "roughnessFactor": 0.8211145618000169
      }
    }
  ],
  "meshes": [
    {
      "name": "0",
      "primitives": [
        {
          "attributes": {
            "COLOR_0": 2,
            "JOINTS_0": 11,
            "NORMAL": 1,
            "POSITION": 0,
            "TEXCOORD_0": 3,
            "WEIGHTS_0": 12
          },
          "indices": 4,
          "material": 0,
          "mode": 4
        }
      ]
    },
    {
      "name": "0",
      "primitives": [
        {
          "attributes": {
            "COLOR_0": 7,
            "JOINTS_0": 13,
            "NORMAL": 6,
            "POSITION": 5,
            "TEXCOORD_0": 8,
            "WEIGHTS_0": 14
          },
          "indices": 9,
          "material": 0,
          "mode": 4
        }
      ]
    }
  ],
  "nodes": [
    {
      "children": [
        1
      ],
      "matrix": [
        1.1111111640930176,
        0.0,
        0.0,
        0.0,
        0.0,
        2.467162394588257e-16,
        -1.1111111640930176,
        0.0,
        0.0,
        1.1111111640930176,
        2.467162394588257e-16,
        0.0,
        0.0,
        0.0,
        0.0,
        1.0
      ],
      "name": "Sketchfab_model"
    },
    {
      "children": [
        2
      ],
      "matrix": [
        0.009999999776482582,
        0.0,
        0.0,
        0.0,
        0.0,
        0.0,
        0.009999999776482582,
        0.0,
        0.0,
        -0.009999999776482582,
        0.0,
        0.0,
        0.0,
        0.0,
        0.0,
        1.0
      ],
      "name": "2f9d77894c644bf780cfa4a2438e0bca.fbx"
    },
    {
      "children": [
        3
      ],
      "name": "RootNode"
    },
    {
      "children": [
        4
      ],
      "matrix": [
        100.0,
        0.0,
        0.0,
        0.0,
        0.0,
        -1.629206793918314e-05,
        -99.99999999999868,
        0.0,
        0.0,
        99.99999999999868,
        -1.629206793918314e-05,
        0.0,
        0.0,
        0.0,
        0.0,
        1.0
      ],
      "name": "Canyon_Rig"
    },
    {
      "children": [
        5,
        7,
        8,
        6
      ],
      "name": "Object_4"
    },
    {
      "children": [
        9
      ],
      "name": "_rootJoint"
    },
    {
      "matrix": [
        0.999999977648315,
        -4.785736636662937e-22,
        1.4175328459328264e-14,
        0.0,
        4.785736717246368e-22,
        0.999999994486565,
        0.0,
        0.0,
        -1.4175328698016798e-14,
        6.783939140316323e-36,
        0.9999999944866218,
        0.0,
        0.0,
        0.0,
        0.0,
        1.0
      ],
      "name": "Object_6"
    },
    {
      "mesh": 0,
      "name": "Object_7",
      "skin": 0
    },
    {
      "mesh": 1,
      "name": "Object_8",
      "skin": 0
    },
    {
      "children": [
        10,
        11,
        14
      ],
      "name": "Root_00",
      "rotation": [
        0.7071067094802856,
        8.429366715745346e-08,
        8.429366715745346e-08,
        0.7071068286895752
      ],
      "scale": [
        1.0,
        0.9999999403953552,
        0.9999999403953552
      ]
    },
    {
      "name": "Back_Wheel_01",
      "rotation": [
        0.5117980241775513,
        0.49986305832862854,
        0.49985870718955994,
        -0.488201767206192
      ],
      "translation": [
        -0.4794681966304779,
        0.3275637924671173,
        -1.2968092732990044e-07
      ]
    },
    {
      "children": [
        12,
        13
      ],
      "name": "ChainRing_02",
      "rotation": [
        0.0027363833505660295,
        -0.007514514960348606,
        -0.007514394354075193,
        0.9999397993087769
      ],
      "scale": [
        0.9999999403953552,
        1.0000001192092896,
        1.0
      ],
      "translation": [
        -0.08638925850391388,
        0.2580619156360626,
        0.026831790804862976
      ]
    },
    {
      "name": "RightPeddle_03",
      "rotation": [
        -0.018960995599627495,
        0.015409165993332863,
        0.015608415938913822,
        0.9995796084403992
      ],
      "translation": [
        0.16373299062252045,
        -0.02842121757566929,
        0.04363979026675224
      ]
    },
    {
      "name": "LeftPeddle_04",
      "rotation": [
        -0.002562715671956539,
        0.003221117425709963,
        0.0032420444767922163,
        0.9999862909317017
      ],
      "scale": [
        1.0,
        0.9999998807907104,
        0.9999999403953552
      ],
      "translation": [
        -0.16810238361358643,
        0.022356709465384483,
        -0.0916585698723793
      ]
    },
    {
      "children": [
        15
      ],
      "name": "Handle_05",
      "rotation": [
        0.977763831615448,
        0.14745067059993744,
        0.14745089411735535,
        -0.022236254066228867
      ],
      "scale": [
        0.999999463558197,
        0.9999998807907104,
        1.0000001192092896
      ],
      "translation": [
        0.2890111207962036,
        0.8176673054695129,
        6.890559944849883e-08
      ]
    },
    {
      "name": "Front_Wheel_06",
      "rotation": [
        0.4755212962627411,
        0.4696681499481201,
        -0.34476903080940247,
        0.6591097116470337
      ],
      "scale": [
        1.0,
        0.9999999403953552,
        0.9999999403953552
      ],
      "translation": [
        0.03485674783587456,
        0.5255140662193298,
        0.006417637225240469
      ]
    }
  ],
  "scene": 0,
  "scenes": [
    {
      "name": "Sketchfab_Scene",
      "nodes": [
        0
      ]
    }
  ],
  "skins": [
    {
      "inverseBindMatrices": 10,
      "joints": [
        5,
        9,
        10,
        11,
        12,
        13,
        14,
        15
      ],
      "skeleton": 5
    }
  ]
}
